<svg width="56" height="56" viewBox="0 0 56 56" fill="none" xmlns="http://www.w3.org/2000/svg">
<rect x="4" y="4" width="48" height="48" rx="24" fill="#F4EBFF"/>
<rect x="4" y="4" width="48" height="48" rx="24" stroke="#F9F5FF" stroke-width="8"/>
<path d="M24.3803 24.8532C25.0763 26.3028 26.0251 27.6615 27.2266 28.8631C28.4282 30.0646 29.7869 31.0134 31.2365 31.7094C31.3612 31.7693 31.4235 31.7992 31.5024 31.8222C31.7828 31.904 32.127 31.8453 32.3644 31.6752C32.4313 31.6274 32.4884 31.5702 32.6027 31.4559C32.9523 31.1063 33.1271 30.9315 33.3029 30.8172C33.9658 30.3862 34.8204 30.3862 35.4833 30.8172C35.6591 30.9315 35.8339 31.1063 36.1835 31.4559L36.3783 31.6508C36.9098 32.1822 37.1755 32.448 37.3198 32.7333C37.6069 33.3009 37.6069 33.9712 37.3198 34.5387C37.1755 34.8241 36.9098 35.0898 36.3783 35.6213L36.2207 35.7789C35.6911 36.3085 35.4263 36.5733 35.0662 36.7756C34.6667 37 34.0462 37.1614 33.588 37.16C33.1751 37.1588 32.8928 37.0787 32.3284 36.9185C29.295 36.0575 26.4326 34.433 24.0447 32.045C21.6567 29.6571 20.0322 26.7947 19.1712 23.7613C19.011 23.1969 18.9309 22.9146 18.9297 22.5017C18.9283 22.0435 19.0897 21.423 19.3141 21.0235C19.5164 20.6634 19.7812 20.3986 20.3108 19.869L20.4684 19.7114C20.9999 19.1799 21.2656 18.9142 21.551 18.7699C22.1185 18.4828 22.7888 18.4828 23.3564 18.7699C23.6417 18.9142 23.9075 19.1799 24.4389 19.7114L24.6338 19.9062C24.9834 20.2559 25.1582 20.4307 25.2725 20.6064C25.7035 21.2693 25.7035 22.1239 25.2725 22.7868C25.1582 22.9626 24.9834 23.1374 24.6338 23.487C24.5195 23.6013 24.4623 23.6584 24.4145 23.7253C24.2445 23.9627 24.1858 24.307 24.2675 24.5873C24.2905 24.6662 24.3204 24.7285 24.3803 24.8532Z" stroke="#7F56D9" stroke-width="2" stroke-linecap="round" stroke-linejoin="round"/>
</svg>
